<svg width="45" height="45" viewBox="0 0 100 100" fill="none" xmlns="http://www.w3.org/2000/svg">
    <path d="M30.757 25.925L24.907 25.025V21.275H34.732C36.282 21.275 38.507 21.175 41.407 20.975C44.307 20.775 46.482 20.675 47.932 20.675C57.232 20.675 64.132 23.025 68.632 27.725C73.182 32.375 75.457 38.925 75.457 47.375C75.457 53.275 74.282 58.525 71.932 63.125C69.632 67.675 66.382 71.225 62.182 73.775C57.982 76.325 53.157 77.6 47.707 77.6C46.507 77.6 44.457 77.5 41.557 77.3C38.557 77.1 36.307 77 34.807 77H24.532V73.325L30.757 72.575V25.925ZM38.707 72.8C40.457 73.2 42.707 73.4 45.457 73.4H47.707C51.457 73.35 54.757 72.4 57.607 70.55C60.507 68.7 62.757 65.95 64.357 62.3C65.957 58.6 66.757 54.125 66.757 48.875C66.757 40.975 65.032 34.975 61.582 30.875C58.182 26.775 53.032 24.725 46.132 24.725C44.682 24.725 42.957 24.825 40.957 25.025C40.107 25.175 39.357 25.25 38.707 25.25V72.8Z" fill="rgb(246, 238, 227)"/>
    <line x1="10" y1="99" x2="89" y2="99" stroke="rgb(246, 238, 227)" stroke-width="2"/>
</svg>
