<svg width="222" height="33" viewBox="0 0 222 33" fill="none" xmlns="http://www.w3.org/2000/svg">
    <path d="M0.819648 2.71H8.94965V4.21L6.12965 4.57L10.2396 18.55L11.1096 22.72L12.0996 18.55L15.5496 7.12L14.7396 4.57L12.6096 4.21V2.71H21.0396V4.21L18.0996 4.57L22.1496 18.55L23.1696 23.05L24.0096 18.55L27.7897 4.57L24.8196 4.21V2.71H31.9597V4.21L29.9797 4.57L24.0096 25.15H21.0696L16.4796 10.12L12.0396 25.15H9.18965L2.79965 4.6L0.819648 4.21V2.71ZM40.1196 25.33C37.6996 25.33 35.8496 24.54 34.5696 22.96C33.3096 21.38 32.6796 19.27 32.6796 16.63C32.6796 14.89 33.0096 13.36 33.6696 12.04C34.3296 10.72 35.2496 9.7 36.4296 8.98C37.6296 8.26 38.9896 7.9 40.5096 7.9C42.3696 7.9 43.8096 8.42 44.8296 9.46C45.8696 10.48 46.4196 11.95 46.4796 13.87C46.4796 15.09 46.4096 16.02 46.2696 16.66H35.9496C35.9896 18.64 36.4496 20.24 37.3296 21.46C38.2096 22.66 39.4596 23.26 41.0796 23.26C41.8796 23.26 42.7096 23.12 43.5696 22.84C44.4496 22.54 45.1296 22.19 45.6096 21.79L46.1796 23.11C45.5996 23.71 44.7396 24.23 43.5996 24.67C42.4596 25.11 41.2996 25.33 40.1196 25.33ZM43.1796 15.07C43.2396 14.65 43.2696 14.22 43.2696 13.78C43.2496 12.48 42.9696 11.46 42.4296 10.72C41.9096 9.96 41.0796 9.58 39.9396 9.58C38.7796 9.58 37.8496 10 37.1496 10.84C36.4696 11.68 36.0796 13.09 35.9796 15.07H43.1796ZM47.648 1L52.448 0.429998H52.508L53.198 0.879999V9.91C53.798 9.33 54.508 8.85 55.328 8.47C56.168 8.09 57.098 7.9 58.118 7.9C59.318 7.9 60.408 8.19 61.388 8.77C62.388 9.35 63.178 10.25 63.758 11.47C64.358 12.69 64.658 14.23 64.658 16.09C64.658 17.81 64.298 19.37 63.578 20.77C62.878 22.17 61.868 23.28 60.548 24.1C59.228 24.92 57.698 25.33 55.958 25.33C54.578 25.33 53.318 25.2 52.178 24.94C51.038 24.66 50.348 24.41 50.108 24.19V2.59L47.648 2.26V1ZM56.888 10.03C56.128 10.03 55.418 10.21 54.758 10.57C54.118 10.91 53.598 11.3 53.198 11.74V22.78C53.318 23.06 53.658 23.29 54.218 23.47C54.798 23.63 55.448 23.71 56.168 23.71C57.708 23.71 58.948 23.09 59.888 21.85C60.828 20.61 61.298 18.8 61.298 16.42C61.298 14.28 60.888 12.68 60.068 11.62C59.248 10.56 58.188 10.03 56.888 10.03ZM76.9198 4.57L74.5798 4.21V2.71H78.5098C79.1298 2.71 80.0198 2.67 81.1798 2.59C82.3398 2.51 83.2098 2.47 83.7898 2.47C87.5098 2.47 90.2698 3.41 92.0698 5.29C93.8898 7.15 94.7998 9.77 94.7998 13.15C94.7998 15.51 94.3298 17.61 93.3898 19.45C92.4698 21.27 91.1698 22.69 89.4898 23.71C87.8098 24.73 85.8798 25.24 83.6998 25.24C83.2198 25.24 82.3998 25.2 81.2398 25.12C80.0398 25.04 79.1398 25 78.5398 25H74.4298V23.53L76.9198 23.23V4.57ZM80.0998 23.32C80.7998 23.48 81.6998 23.56 82.7998 23.56H83.6998C85.1998 23.54 86.5198 23.16 87.6598 22.42C88.8198 21.68 89.7198 20.58 90.3598 19.12C90.9998 17.64 91.3198 15.85 91.3198 13.75C91.3198 10.59 90.6298 8.19 89.2498 6.55C87.8898 4.91 85.8298 4.09 83.0698 4.09C82.4898 4.09 81.7998 4.13 80.9998 4.21C80.6598 4.27 80.3598 4.3 80.0998 4.3V23.32ZM104.514 25.33C102.094 25.33 100.244 24.54 98.9642 22.96C97.7042 21.38 97.0742 19.27 97.0742 16.63C97.0742 14.89 97.4042 13.36 98.0642 12.04C98.7242 10.72 99.6442 9.7 100.824 8.98C102.024 8.26 103.384 7.9 104.904 7.9C106.764 7.9 108.204 8.42 109.224 9.46C110.264 10.48 110.814 11.95 110.874 13.87C110.874 15.09 110.804 16.02 110.664 16.66H100.344C100.384 18.64 100.844 20.24 101.724 21.46C102.604 22.66 103.854 23.26 105.474 23.26C106.274 23.26 107.104 23.12 107.964 22.84C108.844 22.54 109.524 22.19 110.004 21.79L110.574 23.11C109.994 23.71 109.134 24.23 107.994 24.67C106.854 25.11 105.694 25.33 104.514 25.33ZM107.574 15.07C107.634 14.65 107.664 14.22 107.664 13.78C107.644 12.48 107.364 11.46 106.824 10.72C106.304 9.96 105.474 9.58 104.334 9.58C103.174 9.58 102.244 10 101.544 10.84C100.864 11.68 100.474 13.09 100.374 15.07H107.574ZM112.073 8.35H119.033V9.76L116.903 10.15L119.933 18.79L121.193 22.6L122.273 18.91L125.303 10.15L123.263 9.76V8.35H129.353V9.76L127.793 10.15L122.003 25.24H119.453L113.423 10.15L112.073 9.76V8.35ZM137.883 25.33C135.463 25.33 133.613 24.54 132.333 22.96C131.073 21.38 130.443 19.27 130.443 16.63C130.443 14.89 130.773 13.36 131.433 12.04C132.093 10.72 133.013 9.7 134.193 8.98C135.393 8.26 136.753 7.9 138.273 7.9C140.133 7.9 141.573 8.42 142.593 9.46C143.633 10.48 144.183 11.95 144.243 13.87C144.243 15.09 144.173 16.02 144.033 16.66H133.713C133.753 18.64 134.213 20.24 135.093 21.46C135.973 22.66 137.223 23.26 138.843 23.26C139.643 23.26 140.473 23.12 141.333 22.84C142.213 22.54 142.893 22.19 143.373 21.79L143.943 23.11C143.363 23.71 142.503 24.23 141.363 24.67C140.223 25.11 139.063 25.33 137.883 25.33ZM140.943 15.07C141.003 14.65 141.033 14.22 141.033 13.78C141.013 12.48 140.733 11.46 140.193 10.72C139.673 9.96 138.843 9.58 137.703 9.58C136.543 9.58 135.613 10 134.913 10.84C134.233 11.68 133.843 13.09 133.743 15.07H140.943ZM149.012 2.62L146.582 2.29V1L151.412 0.429998H151.472L152.132 0.879999V23.29L154.682 23.53V25H146.582V23.53L149.012 23.26V2.62ZM156.812 16.63C156.812 14.83 157.182 13.27 157.922 11.95C158.662 10.63 159.632 9.63 160.832 8.95C162.052 8.25 163.352 7.9 164.732 7.9C167.252 7.9 169.142 8.7 170.402 10.3C171.682 11.9 172.322 14 172.322 16.6C172.322 18.42 171.952 19.99 171.212 21.31C170.472 22.63 169.492 23.63 168.272 24.31C167.072 24.99 165.782 25.33 164.402 25.33C161.882 25.33 159.982 24.53 158.702 22.93C157.442 21.33 156.812 19.23 156.812 16.63ZM164.582 23.62C165.962 23.62 167.022 23.05 167.762 21.91C168.502 20.77 168.872 19.08 168.872 16.84C168.872 14.62 168.532 12.86 167.852 11.56C167.172 10.26 166.082 9.61 164.582 9.61C163.202 9.61 162.132 10.18 161.372 11.32C160.632 12.46 160.262 14.15 160.262 16.39C160.262 18.61 160.612 20.37 161.312 21.67C162.012 22.97 163.102 23.62 164.582 23.62ZM191.294 16.09C191.294 17.79 190.944 19.35 190.244 20.77C189.544 22.17 188.544 23.28 187.244 24.1C185.944 24.92 184.424 25.33 182.684 25.33C182.204 25.33 181.684 25.29 181.124 25.21C180.564 25.13 180.114 25.03 179.774 24.91L179.864 27.43V30.46L182.984 30.79V32.26H174.614V30.79L176.774 30.46V10.66L174.584 10.12V8.5L178.844 7.96H178.904L179.534 8.5V10.27C180.134 9.61 180.874 9.05 181.754 8.59C182.654 8.13 183.654 7.9 184.754 7.9C185.934 7.9 187.014 8.19 187.994 8.77C188.994 9.35 189.794 10.25 190.394 11.47C190.994 12.69 191.294 14.23 191.294 16.09ZM183.524 10C182.764 10 182.054 10.16 181.394 10.48C180.734 10.8 180.224 11.15 179.864 11.53V22.84C180.004 23.08 180.354 23.3 180.914 23.5C181.494 23.68 182.124 23.77 182.804 23.77C184.344 23.77 185.584 23.16 186.524 21.94C187.484 20.72 187.964 18.88 187.964 16.42C187.964 14.26 187.544 12.65 186.704 11.59C185.884 10.53 184.824 10 183.524 10ZM201.282 25.33C198.862 25.33 197.012 24.54 195.732 22.96C194.472 21.38 193.842 19.27 193.842 16.63C193.842 14.89 194.172 13.36 194.832 12.04C195.492 10.72 196.412 9.7 197.592 8.98C198.792 8.26 200.152 7.9 201.672 7.9C203.532 7.9 204.972 8.42 205.992 9.46C207.032 10.48 207.582 11.95 207.642 13.87C207.642 15.09 207.572 16.02 207.432 16.66H197.112C197.152 18.64 197.612 20.24 198.492 21.46C199.372 22.66 200.622 23.26 202.242 23.26C203.042 23.26 203.872 23.12 204.732 22.84C205.612 22.54 206.292 22.19 206.772 21.79L207.342 23.11C206.762 23.71 205.902 24.23 204.762 24.67C203.622 25.11 202.462 25.33 201.282 25.33ZM204.342 15.07C204.402 14.65 204.432 14.22 204.432 13.78C204.412 12.48 204.132 11.46 203.592 10.72C203.072 9.96 202.242 9.58 201.102 9.58C199.942 9.58 199.012 10 198.312 10.84C197.632 11.68 197.242 13.09 197.142 15.07H204.342ZM210.28 23.53L212.53 23.35V10.66L210.37 10.12V8.5L214.51 7.96H214.57L215.23 8.5V9.04L215.14 11.38H215.23C215.43 11.04 215.79 10.6 216.31 10.06C216.83 9.52 217.5 9.03 218.32 8.59C219.14 8.13 220.03 7.9 220.99 7.9C221.39 7.9 221.72 7.95 221.98 8.05V11.41C221.84 11.31 221.61 11.22 221.29 11.14C220.99 11.04 220.65 10.99 220.27 10.99C218.61 10.99 217.07 11.5 215.65 12.52V23.32L219.46 23.56V25H210.28V23.53Z" fill="#173e43"/>
</svg>
